<?xml version="1.0" standalone="no"?>
<!DOCTYPE svg PUBLIC "-//W3C//DTD SVG 20010904//EN"
 "http://www.w3.org/TR/2001/REC-SVG-20010904/DTD/svg10.dtd">
<svg version="1.0" xmlns="http://www.w3.org/2000/svg"
 width="700.000000pt" height="700.000000pt" viewBox="0 0 700.000000 700.000000"
 preserveAspectRatio="xMidYMid meet">
<g transform="translate(0.000000,700.000000) scale(0.100000,-0.100000)"
fill="#000000" stroke="none">
<path d="M2673 6433 c-5 -1 -60 -4 -123 -6 -63 -3 -124 -7 -135 -10 -299 -73
-506 -261 -591 -537 -19 -61 -27 -141 -29 -295 -1 -71 -3 -132 -4 -135 0 -3
-288 -5 -639 -6 -350 0 -657 -3 -682 -7 -220 -32 -398 -189 -454 -403 -14 -53
-16 -254 -13 -1904 l2 -1845 22 -54 c74 -179 207 -300 383 -347 61 -16 246
-17 3085 -18 3408 0 3089 -8 3238 79 130 76 231 215 257 354 12 62 9 3690 -2
3730 -31 104 -68 171 -132 240 -74 79 -197 147 -301 166 -22 5 -332 9 -690 10
-357 2 -652 3 -655 4 -3 1 -6 58 -6 129 -1 145 -10 255 -23 280 -5 9 -10 22
-10 27 -5 44 -56 151 -106 220 -45 64 -130 149 -180 180 -16 11 -32 22 -35 25
-13 13 -111 60 -165 78 -64 21 -103 30 -175 39 -40 4 -1818 11 -1837 6z m1849
-555 c56 -26 97 -68 118 -123 15 -38 20 -305 5 -306 -27 -3 -2272 -4 -2285 -1
-13 3 -15 25 -14 140 1 76 7 150 13 166 30 74 100 130 181 144 23 4 466 7 984
6 l943 -1 55 -25z"/>
</g>
</svg>
